<svg viewBox="0 0 1173 880" version="1.1" xmlns="http://www.w3.org/2000/svg">
<defs>
<clipPath id="c0_4"><path d="M-.2 880.3V-.2H1173.6V880.3Z"/></clipPath>
<clipPath id="c1_4"><path d="M-140.2 1047.6V-.2H1173.6V1047.6Z"/></clipPath>
<clipPath id="c2_4"><path d="M549.7 614.5V192.2h564.4V614.5Z"/></clipPath>
<style>
.g0_4{fill:#FFF;}
.g1_4{fill:#F0EBEB;}
</style>
</defs>
<g clip-path="url(#c0_4)">
<path fill-rule="evenodd" d="M0 0H1173.3V880H0V0Z" class="g0_4"/>
<path fill-rule="evenodd" d="M0 0H1173.3V880H0V0Z" class="g0_4"/>
</g>
<image clip-path="url(#c1_4)" preserveAspectRatio="none" x="-139" y="0" width="1312" height="1047" href="img/1.jpg"/>
<g clip-path="url(#c2_4)" opacity="0.62">
<path fill-rule="evenodd" d="M570.9 192.7h522.5c5.1 0 10.1 2 13.7 5.6c3.6 3.7 5.7 8.6 5.7 13.7V594.5c0 5.1-2.1 10-5.7 13.7c-3.6 3.6-8.6 5.7-13.7 5.7H570.9c-5.1 0-10.1-2.1-13.7-5.7c-3.6-3.7-5.7-8.6-5.7-13.7V212c0-5.1 2.1-10 5.7-13.7c3.6-3.6 8.6-5.6 13.7-5.6Z" class="g1_4"/>
</g>
</svg>