<svg viewBox="0 0 1173 880" version="1.1" xmlns="http://www.w3.org/2000/svg">
<defs>
<clipPath id="c0_1"><path d="M1089.4 296.9l-.4-.1L948.1 89.8v-.5l132-89.6l93.5 .1l.1 239.7l-84.3 57.4Z"/></clipPath>
<clipPath id="c1_1"><path d="M-.2 880.3V-.2H1173.6V880.3Z"/></clipPath>
<clipPath id="c2_1"><path d="M946.9 298.2V-.2h226.7V298.2Z"/></clipPath>
<clipPath id="c3_1"><path d="M245.6 841.3l-68-453.9l453.9-67.9l68 453.9L245.6 841.3Z"/></clipPath>
<style>
.g0_1{fill:#FFF;}
.g1_1{fill:#F3FAD8;}
.g2_1{fill:#F2FAD6;}
.g3_1{fill:#F2FAD4;}
.g4_1{fill:#F1F9D2;}
.g5_1{fill:#F0F9D0;}
.g6_1{fill:#EFF9CE;}
.g7_1{fill:#EFF9CC;}
.g8_1{fill:#EEF9CA;}
.g9_1{fill:#EDF9C8;}
.ga_1{fill:#EDF8C6;}
.gb_1{fill:#ECF8C4;}
.gc_1{fill:#EBF8C2;}
.gd_1{fill:#EBF8C0;}
.ge_1{fill:#EAF8BD;}
.gf_1{fill:#E9F7BB;}
.gg_1{fill:#E8F7B9;}
.gh_1{fill:#E8F7B7;}
.gi_1{fill:#E7F7B5;}
.gj_1{fill:#E6F7B3;}
.gk_1{fill:#E6F6B1;}
.gl_1{fill:#E5F6AF;}
.gm_1{fill:#E4F6AD;}
.gn_1{fill:#E3F6AB;}
.go_1{fill:#E3F6A9;}
.gp_1{fill:#E2F5A7;}
.gq_1{fill:#E1F5A5;}
.gr_1{fill:#E1F5A3;}
.gs_1{fill:#E0F5A1;}
.gt_1{fill:#DFF59F;}
.gu_1{fill:#DEF59D;}
.gv_1{fill:#DEF49B;}
.gw_1{fill:#DDF499;}
.gx_1{fill:#DCF497;}
.gy_1{fill:#DCF495;}
.gz_1{fill:#DBF493;}
.g10_1{fill:#DAF391;}
.g11_1{fill:#DAF38F;}
.g12_1{fill:#D9F38C;}
.g13_1{fill:#D8F38A;}
.g14_1{fill:#D7F388;}
.g15_1{fill:#D7F386;}
.g16_1{fill:#D6F284;}
.g17_1{fill:#D5F282;}
.g18_1{fill:#D5F280;}
.g19_1{fill:#D4F27E;}
.g1a_1{fill:#D3F27C;}
.g1b_1{fill:#D2F17A;}
.g1c_1{fill:#D2F178;}
.g1d_1{fill:#D1F176;}
.g1e_1{fill:#282727;}
.g1f_1{fill:#514E4E;}
.g1g_1{fill:#F7AD09;}
</style>
</defs>
<g clip-path="url(#c1_1)">
<path fill-rule="evenodd" d="M0 0H1173.3V880H0V0Z" class="g0_1"/>
<path fill-rule="evenodd" d="M0 0H1173.3V880H0V0Z" class="g1_1"/>
<path fill-rule="evenodd" d="M-418.9 461L607.6-565.6L1613.3 440L586.7 1466.7L-418.9 461Z" class="g2_1"/>
<path fill-rule="evenodd" d="M-398 481.9L628.6-544.7L1613.3 440L586.7 1466.7L-398 481.9Z" class="g3_1"/>
<path fill-rule="evenodd" d="M-377.1 502.8L649.5-523.7L1613.3 440L586.7 1466.7L-377.1 502.8Z" class="g4_1"/>
<path fill-rule="evenodd" d="M-356.1 523.8L670.5-502.7L1613.3 440L586.7 1466.7L-356.1 523.8Z" class="g5_1"/>
<path fill-rule="evenodd" d="M-335.1 544.8L691.4-481.8L1613.3 440L586.7 1466.7L-335.1 544.8Z" class="g6_1"/>
<path fill-rule="evenodd" d="M-314.2 565.7L712.4-460.9L1613.3 440L586.6 1466.7l-900.8-901Z" class="g7_1"/>
<path fill-rule="evenodd" d="M-293.2 586.7L733.3-439.9l880 879.9L586.7 1466.7l-879.9-880Z" class="g8_1"/>
<path fill-rule="evenodd" d="M-272.3 607.6L754.3-418.9l859 858.9L586.7 1466.7l-859-859.1Z" class="g9_1"/>
<path fill-rule="evenodd" d="M-251.3 628.6L775.2-398l838.1 838L586.7 1466.7l-838-838.1Z" class="ga_1"/>
<path fill-rule="evenodd" d="M-230.4 649.5L796.2-377l817.1 817L586.6 1466.7l-817-817.2Z" class="gb_1"/>
<path fill-rule="evenodd" d="M-209.4 670.5L817.1-356.1L1613.3 440L586.6 1466.7l-796-796.2Z" class="gc_1"/>
<path fill-rule="evenodd" d="M-188.5 691.4L838.1-335.1L1613.3 440L586.6 1466.7L-188.5 691.4Z" class="gd_1"/>
<path fill-rule="evenodd" d="M-167.5 712.4L859-314.2L1613.3 440L586.6 1466.7L-167.5 712.4Z" class="ge_1"/>
<path fill-rule="evenodd" d="M-146.6 733.3L880-293.2L1613.3 440L586.6 1466.7L-146.6 733.3Z" class="gf_1"/>
<path fill-rule="evenodd" d="M-125.6 754.3L901-272.3L1613.3 440L586.6 1466.7L-125.6 754.3Z" class="gg_1"/>
<path fill-rule="evenodd" d="M-104.7 775.2L921.9-251.3L1613.3 440L586.6 1466.7L-104.7 775.2Z" class="gh_1"/>
<path fill-rule="evenodd" d="M-83.7 796.2L942.8-230.4L1613.3 440L586.6 1466.7L-83.7 796.2Z" class="gi_1"/>
<path fill-rule="evenodd" d="M-62.7 817.2L963.8-209.4L1613.3 440L586.6 1466.7L-62.7 817.2Z" class="gj_1"/>
<path fill-rule="evenodd" d="M-41.8 838.1L984.8-188.5L1613.3 440L586.6 1466.7L-41.8 838.1Z" class="gk_1"/>
<path fill-rule="evenodd" d="M-20.9 859L1005.7-167.5L1613.3 440L586.6 1466.7L-20.9 859Z" class="gl_1"/>
<path fill-rule="evenodd" d="M0 880L1026.6-146.6L1613.3 440L586.6 1466.6L0 880Z" class="gm_1"/>
<path fill-rule="evenodd" d="M21 901L1047.6-125.6L1613.3 440L586.6 1466.7L21 901Z" class="gn_1"/>
<path fill-rule="evenodd" d="M41.9 921.9L1068.6-104.7L1613.3 440L586.6 1466.7L41.9 921.9Z" class="go_1"/>
<path fill-rule="evenodd" d="M62.8 942.8L1089.5-83.7L1613.3 440L586.7 1466.7L62.8 942.8Z" class="gp_1"/>
<path fill-rule="evenodd" d="M83.8 963.8L1110.5-62.7L1613.3 440L586.6 1466.7L83.8 963.8Z" class="gq_1"/>
<path fill-rule="evenodd" d="M104.8 984.8L1131.4-41.8L1613.3 440L586.6 1466.7L104.8 984.8Z" class="gr_1"/>
<path fill-rule="evenodd" d="M125.7 1005.7L1152.4-20.9L1613.3 440L586.6 1466.7l-460.9-461Z" class="gs_1"/>
<path fill-rule="evenodd" d="M146.7 1026.7L1173.3 0l440 440L586.6 1466.7l-439.9-440Z" class="gt_1"/>
<path fill-rule="evenodd" d="M167.6 1047.6L1194.3 21l419 419L586.6 1466.7l-419-419.1Z" class="gu_1"/>
<path fill-rule="evenodd" d="M188.6 1068.6L1215.2 41.9L1613.3 440L586.6 1466.7l-398-398.1Z" class="gv_1"/>
<path fill-rule="evenodd" d="M209.5 1089.5L1236.2 62.8L1613.3 440L586.7 1466.7L209.5 1089.5Z" class="gw_1"/>
<path fill-rule="evenodd" d="M230.5 1110.5L1257.1 83.8L1613.3 440L586.6 1466.7L230.5 1110.5Z" class="gx_1"/>
<path fill-rule="evenodd" d="M251.4 1131.4L1278.1 104.8L1613.3 440L586.7 1466.7L251.4 1131.4Z" class="gy_1"/>
<path fill-rule="evenodd" d="M272.4 1152.4L1299 125.7L1613.3 440L586.6 1466.7L272.4 1152.4Z" class="gz_1"/>
<path fill-rule="evenodd" d="M293.3 1173.3L1320 146.7L1613.3 440L586.6 1466.7L293.3 1173.3Z" class="g10_1"/>
<path fill-rule="evenodd" d="M314.3 1194.3L1341 167.6L1613.3 440L586.6 1466.7L314.3 1194.3Z" class="g11_1"/>
<path fill-rule="evenodd" d="M335.2 1215.2L1361.9 188.6L1613.3 440L586.6 1466.7L335.2 1215.2Z" class="g12_1"/>
<path fill-rule="evenodd" d="M356.2 1236.2L1382.8 209.5L1613.3 440L586.6 1466.7L356.2 1236.2Z" class="g13_1"/>
<path fill-rule="evenodd" d="M377.1 1257.1L1403.8 230.5L1613.3 440L586.6 1466.7L377.1 1257.1Z" class="g14_1"/>
<path fill-rule="evenodd" d="M398.1 1278.1L1424.8 251.4L1613.3 440L586.6 1466.7L398.1 1278.1Z" class="g15_1"/>
<path fill-rule="evenodd" d="M419 1299L1445.7 272.4L1613.3 440L586.6 1466.7L419 1299Z" class="g16_1"/>
<path fill-rule="evenodd" d="M440 1320L1466.6 293.3L1613.3 440L586.6 1466.7L440 1320Z" class="g17_1"/>
<path fill-rule="evenodd" d="M461 1341L1487.6 314.3L1613.3 440L586.6 1466.7L461 1341Z" class="g18_1"/>
<path fill-rule="evenodd" d="M481.9 1361.9L1508.6 335.2L1613.3 440L586.6 1466.7L481.9 1361.9Z" class="g19_1"/>
<path fill-rule="evenodd" d="M502.8 1382.8L1529.5 356.2l83.8 83.8L586.7 1466.7l-83.9-83.9Z" class="g1a_1"/>
<path fill-rule="evenodd" d="M523.8 1403.8L1550.5 377.2l62.8 62.8L586.6 1466.7l-62.8-62.9Z" class="g1b_1"/>
<path fill-rule="evenodd" d="M544.8 1424.8L1571.4 398.1l41.9 41.9L586.7 1466.7l-41.9-41.9Z" class="g1c_1"/>
<path fill-rule="evenodd" d="M565.7 1445.7L1592.4 419l20.9 21L586.6 1466.7l-20.9-21Z" class="g1d_1"/>
<path fill-rule="evenodd" d="M0 0H419.1V880H0V0Z" class="g1e_1"/>
</g>
<path fill-rule="evenodd" d="M398.1 255.6c-104.2 0-188.6 87.6-188.6 195.7c0 108.1 84.4 195.8 188.6 195.8c104.1 0 188.5-87.7 188.5-195.8c0-108.1-84.4-195.7-188.5-195.7Z" class="g1g_1"/>
<g clip-path="url(#c2_1)" opacity="0.35">
<path clip-path="url(#c0_1)" fill-rule="evenodd" d="M1173.3 289.6c-121.2 0-219.8-90.4-219.8-201.6c0-111 98.6-201.5 219.8-201.5c121.2 0 219.8 90.5 219.8 201.5c0 111.2-98.6 201.6-219.8 201.6ZM948.6 88c0 115 100.8 208.5 224.7 208.5C1297.2 296.5 1398 203 1398 88c0-114.8-100.8-208.3-224.7-208.3c-123.9 0-224.7 93.5-224.7 208.3Z" class="g1f_1"/>
</g>
<image clip-path="url(#c3_1)" preserveAspectRatio="none" x="178" y="320" width="521" height="521" href="img/1.png"/>
</svg>